<?xml version="1.0" encoding="utf-8"?>
<!-- Generator: Adobe Illustrator 21.0.2, SVG Export Plug-In . SVG Version: 6.00 Build 0)  -->
<svg version="1.1" id="Layer_1" xmlns="http://www.w3.org/2000/svg" xmlns:xlink="http://www.w3.org/1999/xlink" x="0px" y="0px"
	 viewBox="0 0 4 12" style="enable-background:new 0 0 4 12;" xml:space="preserve">
<style type="text/css">
	.st0{fill:#C9302C;}
	.st1{fill:#003268;}
</style>
<g>
	<path class="st0" d="M0,2.9C0,1.4,1.1,0.6,2.3,0l0,0l0,0C2.2,0.3,2,0.7,2,1c0,1.1,2,1.3,2,3c0,1.5-1,2.3-2.3,2.9l0,0l0,0
		C1.8,6.6,2,6.2,2,5.9C2,4.7,0,4.6,0,2.9z"/>
</g>
<g>
	<path class="st1" d="M3.2,10.7c0,0.2,0,0.3,0.3,0.3L4,11.1V12H0.8v-0.9L1.5,11c0.2,0,0.3-0.1,0.3-0.3V7.5c0-0.2,0-0.3-0.3-0.3
		L0.8,7V6.2h2.3v4.5H3.2z"/>
</g>
<g>
	<path class="st1" d="M1.7,6.1c0,0.2,0.1,0.4,0.1,0.5l0,0l0,0C1.2,6.3,0.7,5.9,0.7,5.2c0-0.9,1-0.9,1-1.5c0-0.2-0.1-0.4-0.1-0.5l0,0
		l0,0c0.6,0.3,1.1,0.7,1.1,1.4C2.7,5.5,1.7,5.5,1.7,6.1z"/>
</g>
</svg>
