<?xml version="1.0" encoding="utf-8"?>
<!-- Generator: Adobe Illustrator 21.0.2, SVG Export Plug-In . SVG Version: 6.00 Build 0)  -->
<svg version="1.1" id="Layer_1" xmlns="http://www.w3.org/2000/svg" xmlns:xlink="http://www.w3.org/1999/xlink" x="0px" y="0px"
	 viewBox="0 0 73.6 12.1" style="enable-background:new 0 0 73.6 12.1;" xml:space="preserve">
<style type="text/css">
	.st0{fill:#C9302C;}
	.st1{fill:#FFFFFF;}
	.st2{fill:#A3D3D0;}
</style>
<g>
	<path class="st0" d="M0,2.9C0,1.4,1.1,0.6,2.3,0l0,0l0,0C2.2,0.3,2,0.7,2,1c0,1.1,2,1.3,2,3C4,5.5,3,6.3,1.7,6.9l0,0l0,0
		C1.8,6.6,2,6.2,2,5.9C2,4.7,0,4.6,0,2.9z"/>
</g>
<g>
	<path class="st1" d="M3.2,10.7c0,0.2,0,0.3,0.3,0.3L4,11.1V12H0.8v-0.9L1.5,11c0.2,0,0.3-0.1,0.3-0.3V7.5c0-0.2,0-0.3-0.3-0.3
		L0.8,7V6.2h2.3V10.7z"/>
	<path class="st1" d="M7.7,3.3l3.7,5.9V4.8c0-0.3,0-0.4-0.3-0.5l-0.6-0.1V3.3h3.3v0.9l-0.6,0.1c-0.3,0-0.3,0.2-0.3,0.5V12h-1.6
		L7.6,6.1v4.4c0,0.3,0,0.4,0.3,0.5L8.5,11V12H5.2V11l0.6-0.1c0.3,0,0.3-0.2,0.3-0.5V4.8c0-0.3,0-0.4-0.3-0.5L5.2,4.3V3.3H7.7z"/>
	<path class="st1" d="M21,3.3l-0.1,2.3h-1l-0.1-0.8c0-0.3-0.2-0.3-0.5-0.3h-2.1v2.4h2.3v1.2h-2.3v2.3c0,0.3,0.1,0.4,0.4,0.5l0.8,0.1
		v1h-3.6V11l0.6-0.1c0.3-0.1,0.3-0.2,0.3-0.5V4.8c0-0.3-0.1-0.4-0.3-0.4l-0.6-0.1V3.3H21z"/>
	<path class="st1" d="M25.3,12.1c-2.7,0-3.7-1.9-3.7-4.4c0-2.3,1.2-4.4,4.3-4.4c2.7,0,3.7,1.9,3.7,4.4C29.6,9.9,28.4,12.1,25.3,12.1
		z M23.9,4.9c-0.5,0.4-0.7,1.8-0.7,2.8c0,1.9,0.9,3.1,2.5,3.1c0.7,0,1.2-0.1,1.5-0.4c0.4-0.4,0.7-1.8,0.7-2.8c0-1.9-0.9-3.1-2.5-3.1
		C24.8,4.5,24.3,4.6,23.9,4.9z"/>
	<path class="st1" d="M33,10.5c0,0.3,0.1,0.4,0.4,0.5l0.7,0.1v1h-3.5V11l0.6-0.1c0.3,0,0.3-0.2,0.3-0.5V4.8c0-0.3,0-0.4-0.3-0.5
		l-0.6-0.1V3.3h3.3c1.7,0,2.9,0.5,2.9,2.2c0,1.9-1.3,2.4-1.9,2.5c0.2,0,0.5,0.2,0.6,0.4l1,1.7c0.3,0.5,0.6,0.7,0.9,0.7
		c0.2,0,0.5,0,0.6-0.1l-0.1,1.1c-0.1,0.1-0.5,0.3-1.1,0.3c-0.7,0-1.1-0.5-1.5-1l-1.4-2.4c-0.1-0.2-0.3-0.4-0.5-0.4H33V10.5z M33,7.1
		h0.8c0.3,0,0.7,0,0.9-0.2c0.3-0.2,0.4-0.6,0.4-1.3c0-0.8-0.6-1.1-1.4-1.1H33V7.1z"/>
	<path class="st1" d="M41.4,5.6v0.8l-0.3,4.1c0,0.3,0.1,0.4,0.4,0.4l0.6,0.1v0.9h-3.2v-0.9l0.6-0.1c0.3-0.1,0.3-0.1,0.3-0.4l0.5-5.8
		c0-0.2-0.1-0.3-0.4-0.4l-0.6-0.1V3.2h2.8l2.1,6.1l0.1,0.6l0.1-0.6l2-6.1h2.9v0.9l-0.6,0.1c-0.3,0-0.4,0.1-0.4,0.4l0.5,5.7
		c0,0.3,0,0.4,0.3,0.4l0.6,0.1v0.9h-3.4v-0.9l0.6-0.1c0.3,0,0.4-0.2,0.3-0.4l-0.3-4.1l0-0.8l-0.2,0.7L45,11.9h-1.4l-2-5.5L41.4,5.6z
		"/>
	<path class="st1" d="M53.4,10.4c0,0.3,0.1,0.4,0.4,0.5l0.7,0.1v1H51v-0.9l0.6-0.1c0.3,0,0.3-0.2,0.3-0.5V4.7c0-0.3,0-0.4-0.3-0.5
		L51,4.2V3.2h3.3c1.7,0,2.9,0.5,2.9,2.2c0,1.9-1.3,2.4-1.9,2.5c0.2,0,0.5,0.2,0.6,0.4l1,1.7c0.3,0.5,0.6,0.7,0.9,0.7
		c0.2,0,0.5,0,0.6-0.1l-0.1,1.1c-0.1,0.1-0.5,0.3-1.1,0.3c-0.7,0-1.1-0.5-1.5-1l-1.4-2.4c-0.1-0.2-0.3-0.4-0.5-0.4h-0.3V10.4z
		 M53.4,7h0.8c0.3,0,0.7,0,0.9-0.2c0.3-0.2,0.4-0.6,0.4-1.3c0-0.8-0.6-1.1-1.4-1.1h-0.7V7z"/>
</g>
<g>
	<path class="st2" d="M66,9c0,2.1-1.8,2.9-3.3,2.9c-2,0-3.1-1-3.1-2.9V4.7c0-0.3,0-0.4-0.3-0.5l-0.6-0.1V3.2H62v0.9l-0.6,0.1
		c-0.3,0-0.3,0.2-0.3,0.5v4.1c0,1.5,1,1.8,1.9,1.8c0.4,0,0.8,0,1.1-0.3c0.3-0.2,0.4-0.7,0.4-1.7V4.7c0-0.3,0-0.4-0.3-0.5l-0.6-0.1
		V3.2h3.3v0.9l-0.6,0.1C66,4.3,66,4.4,66,4.7V9z"/>
	<path class="st2" d="M69.1,10.4c0.4,0.2,0.8,0.4,1.5,0.4c0.8,0,1.5-0.4,1.5-1.2c0-0.6-0.2-0.9-1.2-1.3l-1.5-0.6
		c-1-0.4-1.7-1.2-1.7-2.4c0-1.3,1-2.3,2.9-2.3c0.9,0,1.8,0.1,2.6,0.3l-0.2,2h-1.2l-0.2-0.9c-0.4-0.2-0.9-0.2-1.3-0.2
		c-0.8,0-1.2,0.3-1.2,1c0,0.6,0.3,1,1.1,1.3l1,0.4c1.1,0.4,2.2,0.9,2.2,2.5c0,1.5-1.1,2.5-3.3,2.5c-1.2,0-1.8-0.2-2.7-0.6l0.1-2.1
		H69L69.1,10.4z"/>
</g>
<g>
	<path class="st1" d="M1.7,6.1c0,0.2,0.1,0.4,0.1,0.5l0,0l0,0C1.2,6.3,0.7,5.9,0.7,5.2c0-0.9,1-0.9,1-1.5c0-0.2-0.1-0.4-0.1-0.5l0,0
		l0,0c0.6,0.3,1.1,0.7,1.1,1.4C2.7,5.5,1.7,5.5,1.7,6.1z"/>
</g>
</svg>
