<?xml version="1.0" encoding="utf-8"?>
<!-- Generator: Adobe Illustrator 21.0.2, SVG Export Plug-In . SVG Version: 6.00 Build 0)  -->
<svg version="1.1" id="Layer_1" xmlns="http://www.w3.org/2000/svg" xmlns:xlink="http://www.w3.org/1999/xlink" x="0px" y="0px"
	 viewBox="0 0 72.9 15.1" style="enable-background:new 0 0 72.9 15.1;" xml:space="preserve">
<style type="text/css">
	.st0{fill:#A3D3D0;}
	.st1{fill:#FFFFFF;}
</style>
<g>
	<path class="st0" d="M2,5.9c0,0.3,0.2,0.7,0.3,1l0,0l0,0C1.1,6.3,0,5.5,0,4c0-1.7,2-1.9,2-3c0-0.3-0.2-0.7-0.3-1l0,0l0,0
		C3,0.6,4,1.4,4,2.9C4,4.6,2,4.7,2,5.9z"/>
</g>
<g>
	<path class="st1" d="M2.9,10.7c0,0.2,0,0.3,0.3,0.3l0.6,0.1V12H0.5v-0.9L1.2,11c0.2,0,0.3-0.1,0.3-0.3V7.5c0-0.2,0-0.3-0.3-0.3
		L0.5,7V6.2h2.3V10.7z"/>
	<path class="st1" d="M7.1,3.3l3.7,5.9V4.8c0-0.3,0-0.4-0.3-0.5L9.9,4.3V3.3h3.3v0.9l-0.6,0.1c-0.3,0-0.3,0.2-0.3,0.5V12h-1.6
		L7.1,6.1v4.4c0,0.3,0,0.4,0.3,0.5L8,11V12H4.6V11l0.6-0.1c0.3,0,0.3-0.2,0.3-0.5V4.8c0-0.3,0-0.4-0.3-0.5L4.6,4.3V3.3H7.1z"/>
	<path class="st1" d="M20.4,3.3l-0.1,2.3h-1l-0.1-0.8c0-0.3-0.2-0.3-0.5-0.3h-2.1v2.4H19v1.2h-2.3v2.3c0,0.3,0.1,0.4,0.4,0.5
		l0.8,0.1v1h-3.6V11l0.6-0.1c0.3-0.1,0.3-0.2,0.3-0.5V4.8c0-0.3-0.1-0.4-0.3-0.4l-0.6-0.1V3.3H20.4z"/>
	<path class="st1" d="M24.7,12.1c-2.7,0-3.7-1.9-3.7-4.4c0-2.3,1.2-4.4,4.3-4.4C28,3.2,29,5.1,29,7.7C29,9.9,27.8,12.1,24.7,12.1z
		 M23.4,4.9c-0.5,0.4-0.7,1.8-0.7,2.8c0,1.9,0.9,3.1,2.5,3.1c0.7,0,1.2-0.1,1.5-0.4c0.4-0.4,0.7-1.8,0.7-2.8c0-1.9-0.9-3.1-2.5-3.1
		C24.2,4.5,23.7,4.6,23.4,4.9z"/>
	<path class="st1" d="M32.5,10.5c0,0.3,0.1,0.4,0.4,0.5l0.7,0.1v1h-3.5V11l0.6-0.1c0.3,0,0.3-0.2,0.3-0.5V4.8c0-0.3,0-0.4-0.3-0.5
		l-0.6-0.1V3.3h3.3c1.7,0,2.9,0.5,2.9,2.2c0,1.9-1.3,2.4-1.9,2.5c0.2,0,0.5,0.2,0.6,0.4l1,1.7c0.3,0.5,0.6,0.7,0.9,0.7
		c0.2,0,0.5,0,0.6-0.1l-0.1,1.1c-0.1,0.1-0.5,0.3-1.1,0.3c-0.7,0-1.1-0.5-1.5-1l-1.4-2.4c-0.1-0.2-0.3-0.4-0.5-0.4h-0.3V10.5z
		 M32.5,7.1h0.8c0.3,0,0.7,0,0.9-0.2c0.3-0.2,0.4-0.6,0.4-1.3c0-0.8-0.6-1.1-1.4-1.1h-0.7V7.1z"/>
	<path class="st1" d="M40.4,5.7v0.8l-0.3,4.1c0,0.3,0.1,0.4,0.4,0.4l0.6,0.1V12h-3.2V11l0.6-0.1c0.3-0.1,0.3-0.1,0.3-0.4l0.5-5.8
		c0-0.2-0.1-0.3-0.4-0.4l-0.6-0.1V3.3h2.8l2.1,6.1l0.1,0.6l0.1-0.6l2-6.1h2.9v0.9l-0.6,0.1c-0.3,0-0.4,0.1-0.4,0.4l0.5,5.7
		c0,0.3,0,0.4,0.3,0.4l0.6,0.1V12h-3.4V11l0.6-0.1c0.3,0,0.4-0.2,0.3-0.4l-0.3-4.1l0-0.8l-0.2,0.7L44,12h-1.4l-2-5.5L40.4,5.7z"/>
	<path class="st1" d="M52.3,10.5c0,0.3,0.1,0.4,0.4,0.5l0.7,0.1v1h-3.5V11l0.6-0.1c0.3,0,0.3-0.2,0.3-0.5V4.8c0-0.3,0-0.4-0.3-0.5
		l-0.6-0.1V3.3h3.3c1.7,0,2.9,0.5,2.9,2.2c0,1.9-1.3,2.4-1.9,2.5c0.2,0,0.5,0.2,0.6,0.4l1,1.7c0.3,0.5,0.6,0.7,0.9,0.7
		c0.2,0,0.5,0,0.6-0.1l-0.1,1.1c-0.1,0.1-0.5,0.3-1.1,0.3c-0.7,0-1.1-0.5-1.5-1l-1.4-2.4c-0.1-0.2-0.3-0.4-0.5-0.4h-0.3V10.5z
		 M52.3,7.1h0.8c0.3,0,0.7,0,0.9-0.2c0.3-0.2,0.4-0.6,0.4-1.3c0-0.8-0.6-1.1-1.4-1.1h-0.7V7.1z"/>
</g>
<g>
	<path class="st0" d="M64.8,9.1c0,2.1-1.8,2.9-3.3,2.9c-2,0-3.1-1-3.1-2.9V4.8c0-0.3,0-0.4-0.3-0.5l-0.6-0.1V3.3h3.4v0.9l-0.6,0.1
		c-0.3,0-0.3,0.2-0.3,0.5V9c0,1.5,1,1.8,1.9,1.8c0.4,0,0.8,0,1.1-0.3c0.3-0.2,0.4-0.7,0.4-1.7V4.8c0-0.3,0-0.4-0.3-0.5l-0.6-0.1V3.3
		h3.3v0.9l-0.6,0.1c-0.3,0-0.3,0.2-0.3,0.5V9.1z"/>
	<path class="st0" d="M68,10.5c0.4,0.2,0.8,0.4,1.5,0.4c0.8,0,1.5-0.4,1.5-1.2c0-0.6-0.2-0.9-1.2-1.3l-1.5-0.6
		c-1-0.4-1.7-1.2-1.7-2.4c0-1.3,1-2.3,2.9-2.3c0.9,0,1.8,0.1,2.6,0.3l-0.2,2h-1.2l-0.2-0.9c-0.4-0.2-0.9-0.2-1.3-0.2
		c-0.8,0-1.2,0.3-1.2,1c0,0.6,0.3,1,1.1,1.3l1,0.4c1.1,0.4,2.2,0.9,2.2,2.5c0,1.5-1.1,2.5-3.3,2.5c-1.2,0-1.8-0.2-2.7-0.6l0.1-2.1
		h1.2L68,10.5z"/>
</g>
<g>
	<path class="st1" d="M2.4,6.1c0,0.2,0.1,0.4,0.1,0.5l0,0l0,0C1.9,6.3,1.4,5.9,1.4,5.1c0-0.9,1-0.9,1-1.5c0-0.2-0.1-0.4-0.1-0.5l0,0
		l0,0c0.6,0.3,1.1,0.7,1.1,1.4C3.4,5.4,2.4,5.5,2.4,6.1z"/>
</g>
</svg>
