<?xml version="1.0" ?><!DOCTYPE svg  PUBLIC '-//W3C//DTD SVG 1.1//EN'  'http://www.w3.org/Graphics/SVG/1.1/DTD/svg11.dtd'><svg enable-background="new 0 0 100 100" height="100px" id="Layer_1" version="1.1" viewBox="0 0 100 100" width="100px" xml:space="preserve" xmlns="http://www.w3.org/2000/svg" xmlns:xlink="http://www.w3.org/1999/xlink"><path d="M50,3.84C24.506,3.84,3.84,24.506,3.84,50S24.506,96.16,50,96.16S96.16,75.494,96.16,50S75.494,3.84,50,3.84  z M73.887,37.989c-0.881,0.831-1.98,2.324-3.107,2.792c0.217,1.023-0.001,2.209-0.206,3.233c-0.234,1.167-0.046,2.441-0.404,3.569  c-0.38,1.198-0.492,2.439-0.893,3.634c-0.463,1.38-1.282,2.821-2.08,4.022c-0.69,1.039-1.165,2.147-1.829,3.177  c-0.765,1.185-1.819,1.93-2.713,2.928c-1.339,1.494-3.207,2.733-4.933,3.896c-1.428,0.961-3.094,1.379-4.659,2.091  c-0.613,0.279-1.356,0.51-2.026,0.683c-0.604,0.155-1.623,0.535-2.272,0.535l-1.168,0.201c-0.473,0.043-1.658-0.047-2.272-0.006  c-0.613,0.039-1.203-0.132-1.831-0.13c-1.539,0.003-3.081-0.047-4.596-0.246c-2.639-0.347-5.681-1.528-7.854-3.08  c-0.392-0.28-0.69-0.675-1.079-0.961c2.276,0.534,5.147,0.449,7.315-0.52c1.202-0.538,2.566-0.776,3.645-1.536  c0.829-0.586,1.799-1.216,2.643-1.691c-1.948-0.182-3.746-0.75-5.515-1.685c-0.872-0.46-3.177-3.003-3.167-4.94  c1.353-0.025,2.572,0.157,3.944-0.025c-0.968-0.257-1.773-0.679-2.659-1.269c-0.998-0.663-1.834-1.155-2.867-2.283  c-1.214-1.324-1.606-3.868-1.469-5.706c0.626,0.062,1.149,0.461,1.757,0.643c0.629,0.187,1.374,0.161,1.973,0.457  c-1.992-0.648-3.017-3.828-3.531-5.601c-0.599-2.063,0.672-6.736,0.714-6.857c1.553,1.18,2.691,2.959,4.253,4.035  c0.904,0.622,1.932,1.31,2.807,1.928c0.444,0.313,0.78,0.459,1.231,0.795c0.393,0.291,0.993,0.499,1.43,0.696  c1.125,0.506,2.528,1.059,3.764,1.285c1.451,0.266,2.986,0.324,4.349,0.794l1.623,0.194c-0.45-1.777-0.204-4.143,0.34-5.969  c0.629-2.11,2.779-3.912,4.707-4.822c1.798-0.849,4.762-1.229,6.636-0.506c0.959,0.37,1.951,0.807,2.842,1.303  c0.831,0.463,1.238,1.53,2.155,1.412c1.614-0.209,4.088-1.208,5.066-2.625c-0.04,2.497-1.512,3.967-3.374,5.482  c1.523-0.445,3.335-0.573,4.79-1.215C74.977,36.884,74.527,37.387,73.887,37.989z" fill="#1DA1F2"/></svg>